Love for All and Sharing is the first step to solving all the problems of humanity.

Website I want to share. 
               
   http://www.scenetime.com
 
 
  Credit to EVERYONE for sharing and seeding back
 especially to SCENETIME.COM where i get all my 
 downloads.


 support www.scenetime.com to grow faster.

                             
                                                            
                                                   

.                

[b]The Lodger 2009 DVDRip XviD AC3-LEGi0N[/center]

[img]http://leetleech.org/images/48874973695367351744.png[/img][b]
[color=red]General[/color]
Format:AVI 
File Size: 1.37 GiB
Duration: 1h 35mn
Overall bit rate: 2 035 Kbps
IMDB Rating: 5.7/10  1 525 votes
Genre: Crime : Drama : Thriller
IMDb Link: http://www.imdb.com/title/tt0851530/
Source: NTSC DVDR-EXT

[color=red]Video[/color]
Format: MPEG-4 Visual
Format profile: Advanced Simple@L5
Format settings, BVOP: Yes
Format settings, QPel: NoFile Size
Format settings, GMC:  No warpoints
Format settings, Matrix: Default (H.263)
Muxing mode: Packed bitstream
Codec ID: XVID
Bit rate: 1 313Kbps
Width: 720 pixels
Height: 400 pixels
DAR: 16:9
Frame rate 23.976 fps
Resolution: 8 bits
Colorimetry: 4:2:0
Scan Type: Progressive
Bits/(Pixel*Frame): 0.231
Stream size: 1 07 GiB (78%)

[color=red]Audio[/color]
Format: AC-3
Bit rate mode: Constant
Bit rate: 448 Kbps
Channel(s): 6 channels
Sampling rate: 48.0 KHz
Stream size: 396 MiB (22%) 

[img]http://leetleech.org/images/89524873606771859129.png[/img]
 A couple rents out a room to a mysterous young man, who may
or may not be guilty of a series of grisly neighborhood murders.

[color=red]Tagline:[/color]
Everyone Is Suspect

[img]http://leetleech.org/images/84434050717770922575.png[/img]
Alfred Molina  ... Chandler Manning
Hope Davis     ... Ellen Bunting  
Shane West     ... Street Wilkenson
Donal Louge    ... Bunting
Simon Baker    ... Malcolm
Mel Harris     ... Margaret
Roy Werner     ... Dr. Stevens

[color=red]GREETZ[/color]
Noir | xXTHORNXx | bigimac | LUSi |

kempas | KaN1vE | mike160 | skillz |

Lungbuster | Sheikh | DiLLoN1369  |

0B5C3N3 | FLAWL3SS | AND ALL P2P![/b]

[img]http://leetleech.org/images/95521316153253938506.png[/img]
[center][img]http://leetleech.org/images/12755021538703799215.png[/img][/center]